# xmcd CD database file
#
# Track frame offsets:
#	150
#	37318
#	62103
#	90122
#	122874
#	149001
#	167411
#	192042
#	222139
#	247236
#	267611
#	283291
#	305305
#
# Disc length: 4255 seconds
#
# Revision: 0
# Processed by: cddbd v1.5.2PL0 Copyright (c) Steve Scherf et al.
# Submitted via: CDex 1.70beta2
#
DISCID=cb109d0d
DTITLE=Various Artist - LOVE JAZZ 66-77
DYEAR=2008
DGENRE=Jazz
TTITLE0=Havana Two: Olli Ahvenlahti
TTITLE1=Meat and Potatoes: Eero Koivistoinen Quartet
TTITLE2=Countenance: Olli Ahvenlahti
TTITLE3=Burnside: Mike Koskinen
TTITLE4=Niin Vahan on aikaa: Juhani Aaltonen and Otto Donner
TTITLE5=Labyrinth Pt.1: Eero Koivistoinen
TTITLE6=Grandma's Rocking Chair: Olli Ahvenlahti
TTITLE7=Sunwebs: Mike Koskinen
TTITLE8=Lahtisin Taas Matkalle: The Otto Donner Treatment
TTITLE9=Stella By Starlight: Paquito D'Rivera
TTITLE10=Puttarhassa: Pekka Streng
TTITLE11=Hues: Mike Koskinen
TTITLE12=Avaruuslaulu: Otto Donner
EXTD=YEAR: 2008
EXTT0=
EXTT1=
EXTT2=
EXTT3=
EXTT4=
EXTT5=
EXTT6=
EXTT7=
EXTT8=
EXTT9=
EXTT10=
EXTT11=
EXTT12=
PLAYORDER=
